<mxfile host="app.diagrams.net" modified="2021-11-08T19:35:52.463Z" agent="5.0 (Windows NT 10.0; Win64; x64) AppleWebKit/537.36 (KHTML, like Gecko) Chrome/95.0.4638.54 Safari/537.36" etag="sQUtPB5Mp-wq9vGkjHts" version="15.7.0" type="github">
  <diagram id="C5RBs43oDa-KdzZeNtuy" name="Page-1">
    <mxGraphModel dx="1021" dy="541" grid="1" gridSize="10" guides="1" tooltips="1" connect="1" arrows="1" fold="1" page="1" pageScale="1" pageWidth="827" pageHeight="1169" math="0" shadow="0">
      <root>
        <mxCell id="WIyWlLk6GJQsqaUBKTNV-0" />
        <mxCell id="WIyWlLk6GJQsqaUBKTNV-1" parent="WIyWlLk6GJQsqaUBKTNV-0" />
        <mxCell id="5Vnk--z4zDBuNNiU4cPM-0" value="DotHttp" style="swimlane;fontStyle=1;align=center;verticalAlign=top;childLayout=stackLayout;horizontal=1;startSize=26;horizontalStack=0;resizeParent=1;resizeParentMax=0;resizeLast=0;collapsible=1;marginBottom=0;fontFamily=Courier New;fontColor=#4D9900;rounded=1;sketch=1;" vertex="1" parent="WIyWlLk6GJQsqaUBKTNV-1">
          <mxGeometry x="90" y="220" width="840" height="222" as="geometry">
            <mxRectangle x="330" y="190" width="90" height="26" as="alternateBounds" />
          </mxGeometry>
        </mxCell>
        <mxCell id="5Vnk--z4zDBuNNiU4cPM-1" value="+ $path: string" style="text;strokeColor=none;fillColor=none;align=left;verticalAlign=top;spacingLeft=4;spacingRight=4;overflow=hidden;rotatable=0;points=[[0,0.5],[1,0.5]];portConstraint=eastwest;fontFamily=Courier New;rounded=1;sketch=1;" vertex="1" parent="5Vnk--z4zDBuNNiU4cPM-0">
          <mxGeometry y="26" width="840" height="26" as="geometry" />
        </mxCell>
        <mxCell id="5Vnk--z4zDBuNNiU4cPM-5" value="" style="line;strokeWidth=1;fillColor=none;align=left;verticalAlign=middle;spacingTop=-1;spacingLeft=3;spacingRight=3;rotatable=0;labelPosition=right;points=[];portConstraint=eastwest;fontFamily=Courier New;rounded=1;sketch=1;" vertex="1" parent="5Vnk--z4zDBuNNiU4cPM-0">
          <mxGeometry y="52" width="840" height="8" as="geometry" />
        </mxCell>
        <mxCell id="5Vnk--z4zDBuNNiU4cPM-4" value="+ [x: string]: DotHttp" style="text;strokeColor=none;fillColor=none;align=left;verticalAlign=top;spacingLeft=4;spacingRight=4;overflow=hidden;rotatable=0;points=[[0,0.5],[1,0.5]];portConstraint=eastwest;fontFamily=Courier New;rounded=1;sketch=1;" vertex="1" parent="5Vnk--z4zDBuNNiU4cPM-0">
          <mxGeometry y="60" width="840" height="26" as="geometry" />
        </mxCell>
        <mxCell id="5Vnk--z4zDBuNNiU4cPM-2" value="" style="line;strokeWidth=1;fillColor=none;align=left;verticalAlign=middle;spacingTop=-1;spacingLeft=3;spacingRight=3;rotatable=0;labelPosition=right;points=[];portConstraint=eastwest;fontFamily=Courier New;rounded=1;sketch=1;" vertex="1" parent="5Vnk--z4zDBuNNiU4cPM-0">
          <mxGeometry y="86" width="840" height="8" as="geometry" />
        </mxCell>
        <mxCell id="5Vnk--z4zDBuNNiU4cPM-8" value="+ get&lt;T, TTransform = T&gt;(query?: Record&lt;string, any&gt;, init: DotHttpInitOf&lt;T, TTransform&gt;): Promise&lt;TTransform&gt;" style="text;strokeColor=none;fillColor=none;align=left;verticalAlign=top;spacingLeft=4;spacingRight=4;overflow=hidden;rotatable=0;points=[[0,0.5],[1,0.5]];portConstraint=eastwest;fontFamily=Courier New;rounded=1;sketch=1;" vertex="1" parent="5Vnk--z4zDBuNNiU4cPM-0">
          <mxGeometry y="94" width="840" height="26" as="geometry" />
        </mxCell>
        <mxCell id="5Vnk--z4zDBuNNiU4cPM-10" value="" style="line;strokeWidth=1;fillColor=none;align=left;verticalAlign=middle;spacingTop=-1;spacingLeft=3;spacingRight=3;rotatable=0;labelPosition=right;points=[];portConstraint=eastwest;fontFamily=Courier New;rounded=1;sketch=1;" vertex="1" parent="5Vnk--z4zDBuNNiU4cPM-0">
          <mxGeometry y="120" width="840" height="8" as="geometry" />
        </mxCell>
        <mxCell id="5Vnk--z4zDBuNNiU4cPM-13" value="+ post&lt;T, TTransform = T&gt;(data?: T, init: DotHttpInitOf&lt;T, TTransform&gt;): Promise&lt;TTransform&gt;" style="text;strokeColor=none;fillColor=none;align=left;verticalAlign=top;spacingLeft=4;spacingRight=4;overflow=hidden;rotatable=0;points=[[0,0.5],[1,0.5]];portConstraint=eastwest;fontFamily=Courier New;rounded=1;sketch=1;" vertex="1" parent="5Vnk--z4zDBuNNiU4cPM-0">
          <mxGeometry y="128" width="840" height="26" as="geometry" />
        </mxCell>
        <mxCell id="5Vnk--z4zDBuNNiU4cPM-12" value="" style="line;strokeWidth=1;fillColor=none;align=left;verticalAlign=middle;spacingTop=-1;spacingLeft=3;spacingRight=3;rotatable=0;labelPosition=right;points=[];portConstraint=eastwest;fontFamily=Courier New;rounded=1;sketch=1;" vertex="1" parent="5Vnk--z4zDBuNNiU4cPM-0">
          <mxGeometry y="154" width="840" height="8" as="geometry" />
        </mxCell>
        <mxCell id="5Vnk--z4zDBuNNiU4cPM-3" value="+ put&lt;T, TTransform = T&gt;(data?: T, init: DotHttpInitOf&lt;T, TTransform&gt;): Promise&lt;TTransform&gt;" style="text;strokeColor=none;fillColor=none;align=left;verticalAlign=top;spacingLeft=4;spacingRight=4;overflow=hidden;rotatable=0;points=[[0,0.5],[1,0.5]];portConstraint=eastwest;fontFamily=Courier New;rounded=1;sketch=1;" vertex="1" parent="5Vnk--z4zDBuNNiU4cPM-0">
          <mxGeometry y="162" width="840" height="26" as="geometry" />
        </mxCell>
        <mxCell id="5Vnk--z4zDBuNNiU4cPM-14" value="" style="line;strokeWidth=1;fillColor=none;align=left;verticalAlign=middle;spacingTop=-1;spacingLeft=3;spacingRight=3;rotatable=0;labelPosition=right;points=[];portConstraint=eastwest;fontFamily=Courier New;rounded=1;sketch=1;" vertex="1" parent="5Vnk--z4zDBuNNiU4cPM-0">
          <mxGeometry y="188" width="840" height="8" as="geometry" />
        </mxCell>
        <mxCell id="5Vnk--z4zDBuNNiU4cPM-16" value="+ delete&lt;T, TTransform = T&gt;(query?: Record&lt;string, any&gt;, init: DotHttpInitOf&lt;T, TTransform&gt;): Promise&lt;TTransform&gt;" style="text;strokeColor=none;fillColor=none;align=left;verticalAlign=top;spacingLeft=4;spacingRight=4;overflow=hidden;rotatable=0;points=[[0,0.5],[1,0.5]];portConstraint=eastwest;fontFamily=Courier New;rounded=1;sketch=1;" vertex="1" parent="5Vnk--z4zDBuNNiU4cPM-0">
          <mxGeometry y="196" width="840" height="26" as="geometry" />
        </mxCell>
      </root>
    </mxGraphModel>
  </diagram>
</mxfile>
